<svg xmlns="http://www.w3.org/2000/svg" version="1.1" xmlns:xlink="http://www.w3.org/1999/xlink" xmlns:svgjs="http://svgjs.dev/svgjs" width="1500" height="939" viewBox="0 0 1500 939"><g transform="matrix(1,0,0,1,-0.9090909090909918,-1.5145161290323017)"><svg viewBox="0 0 396 248" data-background-color="#ffffff" preserveAspectRatio="xMidYMid meet" height="939" width="1500" xmlns="http://www.w3.org/2000/svg" xmlns:xlink="http://www.w3.org/1999/xlink"><g id="tight-bounds" transform="matrix(1,0,0,1,0.2400000000000091,0.4000000000000057)"><svg viewBox="0 0 395.52 247.2" height="247.2" width="395.52"><g><svg></svg></g><g><svg viewBox="0 0 395.52 247.2" height="247.2" width="395.52"><g transform="matrix(1,0,0,1,75.54432,62.92554893617021)"><svg viewBox="0 0 244.43135999999998 121.34890212765957" height="121.34890212765957" width="244.43135999999998"><g><svg viewBox="0 0 244.43136 121.34890212765958" height="121.34890212765957" width="244.43135999999998"><g><svg viewBox="0 0 244.43136 121.34890212765958" height="121.34890212765958" width="244.43136"><g id="textblocktransform"><svg viewBox="0 0 244.43136 121.34890212765958" height="121.34890212765958" width="244.43136" id="textblock"><g><svg viewBox="0 0 244.43136 121.34890212765958" height="121.34890212765958" width="244.43136"><g transform="matrix(1,0,0,1,0,0)"><svg width="244.43136" viewBox="1.7999999999999998 -28 56.400000000000006 28" height="121.34890212765958" data-palette-color="#ec4104"><path d="M18-12Q18.2-11.2 18.2-10L18.2-10Q18.2-8.85 18-8L18-8Q18.2-7.2 18.2-6L18.2-6Q18.2-4.85 18-4L18-4 16-4Q16.2-3.2 16.2-2L16.2-2Q16.2-0.85 16 0L16 0 4 0Q3.8-0.85 3.8-2L3.8-2Q3.8-3.2 4-4L4-4 2-4Q1.8-4.85 1.8-6L1.8-6Q1.8-7.2 2-8L2-8 6-8Q6.2-7.2 6.2-6L6.2-6Q6.2-4.85 6-4L6-4 14-4Q13.8-4.85 13.8-6L13.8-6Q13.8-7.2 14-8L14-8Q13.8-8.85 13.8-10L13.8-10Q13.8-11.2 14-12L14-12 4-12Q3.8-12.85 3.8-14L3.8-14Q3.8-15.2 4-16L4-16 2-16Q1.8-16.85 1.8-18L1.8-18Q1.8-19.2 2-20L2-20Q1.8-20.85 1.8-22L1.8-22Q1.8-23.2 2-24L2-24 4-24Q3.8-24.85 3.8-26L3.8-26Q3.8-27.2 4-28L4-28 16-28Q16.2-27.2 16.2-26L16.2-26Q16.2-24.85 16-24L16-24 18-24Q18.2-23.2 18.2-22L18.2-22Q18.2-20.85 18-20L18-20 14-20Q13.8-20.85 13.8-22L13.8-22Q13.8-23.2 14-24L14-24 6-24Q6.2-23.2 6.2-22L6.2-22Q6.2-20.85 6-20L6-20Q6.2-19.2 6.2-18L6.2-18Q6.2-16.85 6-16L6-16 16-16Q16.2-15.2 16.2-14L16.2-14Q16.2-12.85 16-12L16-12 18-12ZM34-8L38-8Q38.2-7.2 38.2-6L38.2-6Q38.2-4.85 38-4L38-4 36-4Q36.2-3.2 36.2-2L36.2-2Q36.2-0.85 36 0L36 0 26 0Q25.8-0.85 25.8-2L25.8-2Q25.8-3.2 26-4L26-4 24-4Q23.8-4.85 23.8-6L23.8-6Q23.8-7.2 24-8L24-8 22-8Q21.8-8.85 21.8-10L21.8-10Q21.8-11.2 22-12L22-12Q21.8-12.85 21.8-14L21.8-14Q21.8-15.2 22-16L22-16Q21.8-16.85 21.8-18L21.8-18Q21.8-19.2 22-20L22-20 24-20Q23.8-20.85 23.8-22L23.8-22Q23.8-23.2 24-24L24-24 26-24Q25.8-24.85 25.8-26L25.8-26Q25.8-27.2 26-28L26-28 36-28Q36.2-27.2 36.2-26L36.2-26Q36.2-24.85 36-24L36-24 38-24Q38.2-23.2 38.2-22L38.2-22Q38.2-20.85 38-20L38-20 34-20Q33.8-20.85 33.8-22L33.8-22Q33.8-23.2 34-24L34-24 28-24Q28.2-23.2 28.2-22L28.2-22Q28.2-20.85 28-20L28-20 26-20Q26.2-19.2 26.2-18L26.2-18Q26.2-16.85 26-16L26-16Q26.2-15.2 26.2-14L26.2-14Q26.2-12.85 26-12L26-12Q26.2-11.2 26.2-10L26.2-10Q26.2-8.85 26-8L26-8 28-8Q28.2-7.2 28.2-6L28.2-6Q28.2-4.85 28-4L28-4 34-4Q33.8-4.85 33.8-6L33.8-6Q33.8-7.2 34-8L34-8ZM58-24Q58.2-23.2 58.2-22L58.2-22Q58.2-20.85 58-20L58-20Q58.2-19.2 58.2-18L58.2-18Q58.2-16.85 58-16L58-16Q58.2-15.2 58.2-14L58.2-14Q58.2-12.85 58-12L58-12Q58.2-11.2 58.2-10L58.2-10Q58.2-8.85 58-8L58-8Q58.2-7.2 58.2-6L58.2-6Q58.2-4.85 58-4L58-4Q58.2-3.2 58.2-2L58.2-2Q58.2-0.85 58 0L58 0 54 0Q53.8-0.85 53.8-2L53.8-2Q53.8-3.2 54-4L54-4Q53.8-4.85 53.8-6L53.8-6Q53.8-7.2 54-8L54-8Q53.8-8.85 53.8-10L53.8-10Q53.8-11.2 54-12L54-12 46-12Q46.2-11.2 46.2-10L46.2-10Q46.2-8.85 46-8L46-8Q46.2-7.2 46.2-6L46.2-6Q46.2-4.85 46-4L46-4Q46.2-3.2 46.2-2L46.2-2Q46.2-0.85 46 0L46 0 42 0Q41.8-0.85 41.8-2L41.8-2Q41.8-3.2 42-4L42-4Q41.8-4.85 41.8-6L41.8-6Q41.8-7.2 42-8L42-8Q41.8-8.85 41.8-10L41.8-10Q41.8-11.2 42-12L42-12Q41.8-12.85 41.8-14L41.8-14Q41.8-15.2 42-16L42-16Q41.8-16.85 41.8-18L41.8-18Q41.8-19.2 42-20L42-20Q41.8-20.85 41.8-22L41.8-22Q41.8-23.2 42-24L42-24Q41.8-24.85 41.8-26L41.8-26Q41.8-27.2 42-28L42-28 46-28Q46.2-27.2 46.2-26L46.2-26Q46.2-24.85 46-24L46-24Q46.2-23.2 46.2-22L46.2-22Q46.2-20.85 46-20L46-20Q46.2-19.2 46.2-18L46.2-18Q46.2-16.85 46-16L46-16 54-16Q53.8-16.85 53.8-18L53.8-18Q53.8-19.2 54-20L54-20Q53.8-20.85 53.8-22L53.8-22Q53.8-23.2 54-24L54-24Q53.8-24.85 53.8-26L53.8-26Q53.8-27.2 54-28L54-28 58-28Q58.2-27.2 58.2-26L58.2-26Q58.2-24.85 58-24L58-24Z" opacity="1" transform="matrix(1,0,0,1,0,0)" fill="#ec4104" class="wordmark-text-0" data-fill-palette-color="primary" id="text-0"></path></svg></g></svg></g></svg></g></svg></g></svg></g></svg></g><path d="M240.04 56.926L240.04 9.268 11.376 9.268 11.376 237.932 240.04 237.932 240.04 190.274 229.097 190.274 229.097 226.989 22.319 226.989 22.319 20.211 229.097 20.211 229.097 56.926Z" fill="#ec4104" stroke="transparent" data-fill-palette-color="tertiary"></path></svg></g><defs></defs></svg><rect width="395.52" height="247.2" fill="none" stroke="none" visibility="hidden"></rect></g></svg></g></svg>